<svg width="97" height="145" fill="none" xmlns="http://www.w3.org/2000/svg"><path d="M87.732 51.85c-3.86-1.713-8.382.022-10.098 3.875l-10.318 23.85h-2.448V21.968c0-4.218-3.424-7.637-7.65-7.637-4.225 0-7.65 3.419-7.65 7.637V11.25c0-4.217-3.424-7.636-7.65-7.636-4.224 0-7.649 3.418-7.649 7.636V21.97c0-4.218-3.425-7.637-7.65-7.637-4.225 0-7.65 3.419-7.65 7.637v18.069c0-4.217-3.424-7.637-7.65-7.637-4.224 0-7.65 3.419-7.65 7.637V94.83c0 8.714 5.482 16.146 13.188 19.059v64.607h44.919v-64.608a20.444 20.444 0 0 0 12.156-12.656l.052.008 7.31-16.144L91.614 61.93c1.717-3.854-.021-8.367-3.881-10.08Z" fill="#FFCAB9"/><path d="M30.002 21.969c0-2.052.815-3.91 2.134-5.283a7.658 7.658 0 0 0-2.134-1.56v6.843Z" fill="#FABBA7"/><path d="M18.157 110.463c-6.47-2.445-10.818-8.728-10.818-15.633v-9.66c0-4.735-7.338-4.735-7.338 0v9.66c0 9.063 5.206 17.379 13.188 21.437v63.674a3.666 3.666 0 0 0 3.669 3.663 3.666 3.666 0 0 0 3.669-3.663v-66.053a3.663 3.663 0 0 0-2.37-3.425Z" fill="#000"/><path d="M95.188 54.774a11.233 11.233 0 0 0-5.965-6.27c-5.636-2.501-12.485.219-14.957 5.769l-5.728 13.24V21.969c.155-7.736-8.135-13.42-15.3-10.578-.871-15.195-22.023-15.181-22.637 0-7.166-2.84-15.454 2.842-15.3 10.578v7.492C8.142 26.62-.155 32.3.003 40.038v26.819c0 4.736 7.338 4.736 7.338 0v-26.82c.204-5.269 7.762-5.26 7.962 0V65.51c0 4.736 7.338 4.736 7.338 0V21.97c.196-5.256 7.759-5.272 7.961 0v35.617c0 4.736 7.338 4.736 7.338 0V11.252a3.982 3.982 0 0 1 7.962 0v46.335c0 4.736 7.337 4.736 7.337 0V21.97a3.982 3.982 0 0 1 7.963 0V76c-10.83.967-19.303 10.056-19.303 20.932 0 4.736 7.337 4.736 7.337 0 0-10.268 9.313-14.058 18.082-13.695a3.67 3.67 0 0 0 3.369-2.21l10.302-23.813c1.193-2.12 2.945-2.793 5.254-2.017 2.125 1.192 2.798 2.94 2.02 5.246-5.786 12.992-17.736 39.582-17.736 39.582-1.692 4.798-5.448 8.701-10.047 10.439a3.662 3.662 0 0 0-2.37 3.425v64.607a3.666 3.666 0 0 0 3.669 3.663 3.666 3.666 0 0 0 3.669-3.663v-62.235c5.453-2.798 9.817-7.743 11.945-13.65a6962.438 6962.438 0 0 0 17.575-39.192 11.212 11.212 0 0 0 .221-8.645Z" fill="#000"/></svg>