<svg width="80" height="145" fill="none" xmlns="http://www.w3.org/2000/svg"><path d="M62.066 176.113v-95.95c7.742-2.909 13.249-10.332 13.249-19.035V26.512H3.688v34.616c0 8.703 5.507 16.126 13.25 19.035v95.95h45.128Z" fill="#FFCAB9"/><path d="M11.374 34.473c-4.245 0-7.686-3.415-7.686-7.628v-7.273c0-4.213 3.44-7.628 7.686-7.628 4.244 0 7.685 3.415 7.685 7.628v7.273c0 4.213-3.44 7.628-7.685 7.628ZM26.745 34.473c-4.245 0-7.686-3.415-7.686-7.627V11.28c0-4.213 3.441-7.628 7.686-7.628s7.686 3.415 7.686 7.628v15.566c0 4.212-3.441 7.627-7.686 7.627ZM42.116 34.473c-4.245 0-7.685-3.415-7.685-7.627V11.28c0-4.213 3.44-7.628 7.685-7.628 4.245 0 7.686 3.415 7.686 7.628v15.566c0 4.212-3.441 7.627-7.686 7.627ZM57.488 34.473c-4.245 0-7.686-3.415-7.686-7.627V11.28c0-4.213 3.44-7.628 7.686-7.628 4.245 0 7.686 3.415 7.686 7.628v15.566c0 4.212-3.442 7.627-7.686 7.627Z" fill="#FABBA7"/><path d="M75.316 61.128V26.845c0-4.212-3.441-7.627-7.686-7.627H42.116c-4.245 0-7.685 3.415-7.685 7.627 0 4.213 3.44 7.628 7.685 7.628h17.828V45.89c-7.12 1.31-14.164 7.975-14.164 17.337" fill="#FFCAB9"/><path d="M68.859 15.626V11.28c.032-9.787-11.92-14.914-19.057-8.31-4.15-3.938-11.222-3.937-15.37 0C27.99-3 17.225.556 15.588 9.095 8.373 6.066-.162 11.752.003 19.572v41.556c0 9.052 5.23 17.358 13.249 21.41l1.305 92.082c0 2.02 1.65 3.658 3.686 3.658s3.686-1.638 3.686-3.658l-1.305-94.457a3.66 3.66 0 0 0-2.381-3.421c-6.5-2.442-10.868-8.717-10.868-15.614v-23.72c3.865 1.537 8.776.529 11.685-2.253 4.15 3.939 11.223 3.938 15.372 0a11.375 11.375 0 0 0 7.685 2.976h14.142v4.986c-7.317 2.653-14.164 9.955-14.164 20.11 0 2.02 1.65 3.658 3.686 3.658s3.686-1.638 3.686-3.658c0-7.593 5.744-12.746 11.15-13.74a3.666 3.666 0 0 0 3.014-3.597V34.473c0-2.02-1.65-3.658-3.686-3.658H42.116c-2.205 0-4-1.781-4-3.97 0-2.188 1.795-3.97 4-3.97H67.63c2.205 0 4 1.781 4 3.97v34.283c0 6.897-4.368 13.171-10.868 15.614a3.659 3.659 0 0 0-2.381 3.421l1.305 94.457c0 2.02 1.65 3.658 3.686 3.658s3.686-1.638 3.686-3.658l-1.305-92.081C73.77 78.486 79 70.179 79 61.128V26.845c0-5.81-4.448-10.608-10.142-11.219ZM57.487 7.31c2.205 0 4 1.78 4 3.97v4.28h-7.999v-4.28c0-2.189 1.794-3.97 4-3.97ZM11.374 30.815c-2.206 0-4-1.78-4-3.97V19.572c.202-5.26 7.8-5.256 7.999 0v7.273c0 2.19-1.794 3.97-4 3.97Zm15.371 0c-2.205 0-4-1.78-4-3.97V11.28c.202-5.26 7.8-5.256 8 0v15.565c0 2.19-1.794 3.97-4 3.97Zm11.372-14.533V11.28c.201-5.26 7.799-5.255 7.998 0v4.28h-4c-1.406 0-2.753.256-3.998.722Z" fill="#000"/></svg>