<svg width="79" height="145" fill="none" xmlns="http://www.w3.org/2000/svg"><path d="M61.303 177.335v-63.783A20.386 20.386 0 0 0 74.39 94.485V59.81H3.643v34.674a20.386 20.386 0 0 0 13.086 19.067v63.783h44.574Z" fill="#FFCAB9"/><path d="M44.506 63.712c-4.123.765-8.081-1.978-8.842-6.128l-8.226-44.892c-.76-4.15 1.965-8.134 6.088-8.9 4.123-.765 8.081 1.979 8.842 6.128l8.226 44.893c.761 4.15-1.965 8.134-6.088 8.9Z" fill="#FABBA7"/><path d="M53.312 63.06c-4.033-1.152-6.374-5.376-5.23-9.435L60.464 9.709c1.145-4.06 5.342-6.416 9.375-5.264 4.033 1.152 6.375 5.376 5.23 9.435L62.688 57.796c-1.144 4.06-5.341 6.417-9.375 5.264ZM11.234 67.785c-4.192 0-7.591-3.42-7.591-7.64v-7.286c0-4.22 3.399-7.64 7.591-7.64 4.193 0 7.591 3.42 7.591 7.64v7.286c0 4.22-3.398 7.64-7.59 7.64ZM26.417 67.785c-4.193 0-7.592-3.42-7.592-7.64V44.553c0-4.22 3.399-7.64 7.592-7.64 4.192 0 7.59 3.42 7.59 7.64v15.592c0 4.22-3.398 7.64-7.59 7.64Z" fill="#FABBA7"/><path d="M74.39 94.485v-34.34c0-4.22-3.399-7.64-7.592-7.64h-25.2c-4.192 0-7.59 3.42-7.59 7.64s3.398 7.64 7.59 7.64h17.61v11.437c-7.033 1.31-13.99 7.988-13.99 17.365" fill="#FFCAB9"/><path d="M70.833.92C64.977-.753 58.605 2.878 56.962 8.709l-6.736 23.89L45.95 9.256C44.826 3.126 38.954-.943 32.866.189c-6.09 1.13-10.131 7.037-9.008 13.168l3.654 19.947c-5.56-.545-11.03 3.528-12.114 9.06C8.271 39.332-.162 45.026.002 52.86v41.625c0 9.067 5.166 17.387 13.086 21.447v61.404c0 2.023 1.63 3.664 3.64 3.664 2.012 0 3.641-1.641 3.641-3.664v-63.784a3.663 3.663 0 0 0-2.351-3.427c-6.42-2.447-10.734-8.732-10.734-15.64v-23.76c3.817 1.54 8.668.53 11.541-2.257 4.099 3.946 11.085 3.945 15.182 0a11.15 11.15 0 0 0 7.591 2.982h13.968v4.994c-7.227 2.657-13.99 9.971-13.99 20.143 0 2.024 1.63 3.665 3.64 3.665 2.012 0 3.641-1.641 3.641-3.665 0-7.605 5.674-12.767 11.013-13.762a3.658 3.658 0 0 0 2.978-3.603V67.785c0-2.024-1.63-3.664-3.64-3.664h-17.61c-5.225-.196-5.238-7.751 0-7.952h25.2c2.178 0 3.95 1.783 3.95 3.976v34.34c0 6.908-4.313 13.193-10.733 15.64a3.663 3.663 0 0 0-2.352 3.427v19.404c0 2.024 1.63 3.664 3.64 3.664 2.012 0 3.641-1.64 3.641-3.664v-17.025c7.92-4.06 13.086-12.38 13.086-21.446v-34.34c0-5.497-3.919-10.087-9.091-11.096l9.633-34.168c1.69-5.997-1.78-12.26-7.739-13.961Zm-59.599 63.2c-2.178 0-3.95-1.783-3.95-3.975v-7.286c.199-5.269 7.704-5.264 7.9 0v7.286c.001 2.192-1.772 3.976-3.95 3.976Zm19.133-3.975c-.197 5.263-7.701 5.27-7.9 0V44.553c.196-5.262 7.7-5.27 7.9 0v15.592Zm7.281-10.58v-5.011c0-2.25-.659-4.346-1.789-6.11l-4.84-26.416c-.395-2.156 1.026-4.234 3.168-4.632 2.142-.397 4.206 1.033 4.601 3.19l7.01 38.255h-4.2c-1.39 0-2.72.256-3.95.723Zm33.92-36.685-10.14 35.96h-8.213L63.967 10.71c.874-2.27 2.5-3.183 4.879-2.739 2.095.598 3.316 2.801 2.722 4.91Z" fill="#000"/></svg>